<?xml version="1.0" encoding="utf-8"?>
<!-- Generator: Adobe Illustrator 26.0.3, SVG Export Plug-In . SVG Version: 6.00 Build 0)  -->
<svg version="1.1" id="Layer_1" xmlns="http://www.w3.org/2000/svg" xmlns:xlink="http://www.w3.org/1999/xlink" x="0px" y="0px"
	 width="40px" height="40px" viewBox="0 0 40 40" style="enable-background:new 0 0 40 40;" xml:space="preserve">
<g>
	<path style="fill:#C3A864;" d="M5.9,28.8l-1.2-1.7h-1v1.7H2.6V24h2.6c0.9,0,1.6,0.7,1.6,1.5c0,0.6-0.3,1.1-0.9,1.4l1.4,1.9H5.9z
		 M5,24.9H3.7v1.4H5c0.4,0,0.7-0.3,0.7-0.7C5.7,25.2,5.4,24.9,5,24.9z"/>
	<path style="fill:#C3A864;" d="M8.1,28.8V24h3.5v0.9H9.1v0.9h2.3v0.9H9.1v1.1h2.4v0.9H8.1V28.8z"/>
	<path style="fill:#C3A864;" d="M16.9,28.8H16l-1-3l-1,3h-0.9l-1-4.8h1.1l0.7,2.8l0.9-2.8h0.7l0.9,2.8L17,24h1.1L16.9,28.8z"/>
	<path style="fill:#C3A864;" d="M21.6,28.8l-0.4-1h-1.8l-0.4,1h-1l1.8-4.8h1l1.8,4.8H21.6z M20.3,25.1L19.7,27h1.2L20.3,25.1z"/>
	<path style="fill:#C3A864;" d="M26.7,28.8l-1.2-1.7h-1v1.7h-1.1V24H26c0.9,0,1.6,0.7,1.6,1.5c0,0.6-0.3,1.1-0.9,1.4l1.4,1.9H26.7z
		 M25.7,24.9h-1.3v1.4h1.3c0.4,0,0.7-0.3,0.7-0.7C26.4,25.2,26.1,24.9,25.7,24.9z"/>
	<path style="fill:#C3A864;" d="M29.9,28.8h-1.1V24h1.1c1.8,0,3.1,1,3.1,2.4S31.7,28.8,29.9,28.8z M30.1,25h-0.2v2.9h0.2
		c0.9,0,1.7-0.4,1.7-1.4C31.8,25.4,31,25,30.1,25z"/>
	<path style="fill:#C3A864;" d="M35.6,28.9c-0.6,0-1.3-0.1-2-0.4l0.2-0.8c0.6,0.2,1.2,0.3,1.8,0.3s1-0.1,1-0.5
		c0-0.3-0.3-0.4-1.1-0.7c-1.1-0.4-1.6-0.7-1.6-1.5c0-0.9,0.6-1.3,2-1.3c0.5,0,1.2,0.1,1.7,0.2l-0.2,0.9c-0.4-0.1-1.1-0.2-1.6-0.2
		c-0.7,0-0.9,0.1-0.9,0.4s0.3,0.4,1.3,0.8s1.5,0.6,1.5,1.4C37.6,28.3,36.7,28.9,35.6,28.9z"/>
</g>
<g>
	<path style="fill:#C3A864;" d="M11,21.4v-6.1l-2.5,4.2H7.3l-2.5-4.2v6.1H2.6V11.3h2.2l3.1,5.3l3.1-5.3h2.2v10.1
		C13.2,21.4,11,21.4,11,21.4z"/>
	<path style="fill:#C3A864;" d="M21,21.6c-3.6,0-5.7-2.3-5.7-5.2c0-3.1,2.5-5.2,5.7-5.2c1,0,2.1,0.1,2.9,0.3l-0.3,1.9
		c-0.9-0.2-1.5-0.2-2.3-0.2c-2.5,0-3.7,1.2-3.7,3.2c0,1.8,1.2,3.2,3.3,3.2c0.5,0,1.1,0,1.5-0.1v-3.3h2.1v4.9
		C23.6,21.4,21.9,21.6,21,21.6z"/>
	<path style="fill:#C3A864;" d="M35.1,21.4v-6.1l-2.5,4.2h-1.2l-2.5-4.2v6.1h-2.2V11.3h2.2l3.1,5.3l3.1-5.3h2.2v10.1
		C37.3,21.4,35.1,21.4,35.1,21.4z"/>
</g>
<g>
	<path style="fill:#C3A864;" d="M38.5,28.3v0.5h-0.2v-0.5h-0.2v-0.1h0.6v0.1H38.5z M39.4,28.9v-0.4l-0.2,0.3h-0.1L39,28.5v0.4h-0.1
		v-0.7H39l0.2,0.4l0.2-0.4h0.1L39.4,28.9L39.4,28.9z"/>
</g>
</svg>
