<?xml version="1.0" encoding="utf-8"?>
<!-- Generator: Adobe Illustrator 23.0.6, SVG Export Plug-In . SVG Version: 6.00 Build 0)  -->
<svg version="1.1" id="Layer_1" xmlns="http://www.w3.org/2000/svg" xmlns:xlink="http://www.w3.org/1999/xlink" x="0px" y="0px"
	 width="40px" height="40px" viewBox="0 0 40 40" style="enable-background:new 0 0 40 40;" xml:space="preserve">
<g>
	<path style="fill-rule:evenodd;clip-rule:evenodd;fill:#ED1C2E;" d="M23,19.5c0,5.2-4.1,9.5-9.2,9.5c-5.1,0-9.2-4.3-9.2-9.5
		c0-5.2,4.1-9.5,9.2-9.5C18.9,10,23,14.3,23,19.5"/>
	<path style="fill-rule:evenodd;clip-rule:evenodd;fill:#FCB131;" d="M26.2,10c-2.4,0-4.5,0.9-6.2,2.5c-0.3,0.3-0.6,0.6-0.9,1h1.9
		c0.3,0.3,0.5,0.7,0.7,1h-3.3c-0.2,0.3-0.4,0.7-0.5,1h4.3c0.1,0.3,0.3,0.7,0.4,1h-5.1c-0.1,0.3-0.2,0.7-0.3,1h5.6
		c0.1,0.6,0.2,1.3,0.2,2c0,1.1-0.2,2.1-0.5,3h-5.1c0.1,0.3,0.2,0.7,0.4,1h4.3c-0.2,0.3-0.3,0.7-0.5,1h-3.3c0.2,0.4,0.4,0.7,0.7,1
		h1.9c-0.3,0.4-0.6,0.7-0.9,1c1.6,1.5,3.8,2.5,6.2,2.5c5.1,0,9.2-4.3,9.2-9.5C35.4,14.3,31.3,10,26.2,10"/>
	<path style="fill-rule:evenodd;clip-rule:evenodd;fill:#FCB131;" d="M34.2,24.8c0-0.2,0.1-0.3,0.3-0.3c0.2,0,0.3,0.1,0.3,0.3
		c0,0.2-0.1,0.3-0.3,0.3C34.3,25.1,34.1,25,34.2,24.8C34.2,24.8,34.2,24.8,34.2,24.8z M34.4,25c0.1,0,0.2-0.1,0.2-0.2c0,0,0,0,0,0
		c0-0.1-0.1-0.2-0.2-0.2c-0.1,0-0.2,0.1-0.2,0.2C34.2,24.9,34.3,25,34.4,25z M34.4,24.9L34.4,24.9l-0.1-0.3h0.1c0,0,0,0,0.1,0
		c0,0,0,0,0,0.1c0,0,0,0.1,0,0.1l0,0.1H34.4l0-0.1h0L34.4,24.9L34.4,24.9z M34.4,24.8L34.4,24.8C34.5,24.8,34.5,24.8,34.4,24.8
		C34.5,24.8,34.5,24.8,34.4,24.8C34.5,24.7,34.5,24.7,34.4,24.8C34.5,24.7,34.5,24.7,34.4,24.8L34.4,24.8L34.4,24.8L34.4,24.8z"/>
	<path style="fill-rule:evenodd;clip-rule:evenodd;fill:#003473;" d="M11.7,20.5c-0.1,0-0.1,0-0.2,0c-0.6,0-0.9,0.2-0.9,0.6
		c0,0.2,0.1,0.4,0.4,0.4C11.4,21.5,11.7,21.1,11.7,20.5z M12.4,22.3h-0.8l0-0.4c-0.3,0.3-0.6,0.5-1,0.5c-0.5,0-0.9-0.4-0.9-1.1
		c0-1,0.6-1.5,1.8-1.5c0.1,0,0.3,0,0.4,0c0-0.1,0-0.2,0-0.3c0-0.3-0.2-0.4-0.6-0.4c-0.4,0-0.7,0.1-1.1,0.2l0.1-0.9
		c0.5-0.2,0.8-0.2,1.2-0.2c0.9,0,1.3,0.4,1.3,1.1c0,0.3,0,0.5-0.1,0.8C12.6,20.8,12.4,22,12.4,22.3z M9.2,22.3h-1l0.6-3.7l-1.3,3.7
		H6.8l-0.1-3.7l-0.6,3.7H5.2L6,17.5h1.4l0.1,2.7l0.9-2.7H10L9.2,22.3 M27.4,20.5c-0.1,0-0.1,0-0.2,0c-0.6,0-0.9,0.2-0.9,0.6
		c0,0.2,0.1,0.4,0.4,0.4C27.1,21.5,27.4,21.1,27.4,20.5z M28.1,22.3h-0.8l0-0.4c-0.3,0.3-0.6,0.5-1,0.5c-0.5,0-0.9-0.4-0.9-1.1
		c0-1,0.6-1.5,1.8-1.5c0.1,0,0.3,0,0.4,0c0-0.1,0-0.2,0-0.3c0-0.3-0.2-0.4-0.6-0.4c-0.4,0-0.7,0.1-1.1,0.2c0-0.1,0.1-0.9,0.1-0.9
		c0.5-0.2,0.8-0.2,1.2-0.2c0.9,0,1.3,0.4,1.3,1.1c0,0.3,0,0.5-0.1,0.8C28.3,20.8,28.2,22,28.1,22.3z M16.8,22.2
		c-0.2,0.1-0.5,0.1-0.7,0.1c-0.5,0-0.8-0.3-0.8-0.9c0-0.2,0.1-0.6,0.1-1c0.1-0.4,0.4-2.7,0.4-2.7h1l-0.1,0.6h0.6l-0.1,0.9h-0.6
		c-0.1,0.7-0.3,1.7-0.3,1.8c0,0.2,0.1,0.3,0.3,0.3c0.1,0,0.2,0,0.3,0L16.8,22.2 M19.9,22.2c-0.3,0.1-0.7,0.2-1,0.2
		c-1.1,0-1.7-0.6-1.7-1.8c0-1.3,0.7-2.3,1.7-2.3c0.8,0,1.3,0.6,1.3,1.4c0,0.3,0,0.6-0.1,1h-2c-0.1,0.6,0.3,0.8,0.9,0.8
		c0.4,0,0.7-0.1,1-0.2C20.1,21.2,19.9,22.2,19.9,22.2z M19.3,19.9c0-0.1,0.1-0.7-0.5-0.7c-0.3,0-0.5,0.3-0.6,0.7H19.3z M13,19.6
		c0,0.5,0.2,0.8,0.8,1.1c0.4,0.2,0.5,0.3,0.5,0.4c0,0.2-0.2,0.4-0.6,0.4c-0.3,0-0.6,0-0.9-0.2l-0.1,0.9c0.2,0,0.4,0.1,1,0.1
		c1.1,0,1.5-0.4,1.5-1.3c0-0.5-0.2-0.9-0.7-1.1c-0.4-0.2-0.5-0.2-0.5-0.4c0-0.2,0.2-0.3,0.5-0.3c0.2,0,0.5,0,0.7,0.1l0.1-0.9
		c-0.3,0-0.6-0.1-0.9-0.1C13.4,18.3,13,18.9,13,19.6 M24.7,18.4c0.3,0,0.5,0.1,0.9,0.3l0.2-1c-0.1-0.1-0.7-0.4-1.1-0.4
		c-0.7,0-1.2,0.3-1.6,0.9c-0.6-0.2-0.8,0.2-1.1,0.6l-0.3,0.1c0-0.1,0-0.3,0-0.4h-0.9c-0.1,1.2-0.3,2.4-0.5,3.7l0,0.3h1
		c0.2-1.1,0.3-1.8,0.3-2.3l0.4-0.2c0.1-0.2,0.2-0.3,0.6-0.3c0,0.3-0.1,0.5-0.1,0.8c0,1.3,0.7,2.1,1.7,2.1c0.3,0,0.5,0,0.9-0.1
		l0.2-1.1c-0.3,0.2-0.6,0.2-0.8,0.2c-0.6,0-0.9-0.4-0.9-1.2C23.5,19.1,24,18.4,24.7,18.4 M33.2,17.5L33,18.9c-0.3-0.4-0.6-0.6-1-0.6
		c-0.5,0-1,0.4-1.3,1c-0.4-0.1-0.9-0.2-0.9-0.2l0,0c0-0.2,0-0.4,0-0.6H29c-0.1,1.2-0.3,2.4-0.5,3.7l0,0.3h1c0.1-0.9,0.2-1.7,0.3-2.3
		c0.3-0.3,0.5-0.6,0.9-0.6c-0.2,0.4-0.2,0.8-0.2,1.3c0,1,0.5,1.6,1.2,1.6c0.4,0,0.6-0.1,0.9-0.4l0,0.4h0.9l0.8-4.8
		C34.2,17.5,33.2,17.5,33.2,17.5z M32,21.4c-0.3,0-0.5-0.3-0.5-0.8c0-0.8,0.3-1.3,0.8-1.3c0.3,0,0.5,0.3,0.5,0.8
		C32.7,20.8,32.4,21.4,32,21.4z"/>
	<path style="fill-rule:evenodd;clip-rule:evenodd;fill:#FFFFFF;" d="M9.5,22h-1l0.6-3.7L7.8,22H7.1L7,18.3L6.4,22H5.5l0.8-4.8h1.4
		l0,3l1-3h1.6L9.5,22 M12,20.3c-0.1,0-0.1,0-0.2,0c-0.6,0-0.9,0.2-0.9,0.6c0,0.2,0.1,0.4,0.4,0.4C11.7,21.2,11.9,20.8,12,20.3z
		 M12.7,22h-0.8l0-0.4c-0.3,0.3-0.6,0.5-1,0.5c-0.5,0-0.9-0.4-0.9-1.1c0-1,0.6-1.5,1.8-1.5c0.1,0,0.3,0,0.4,0c0-0.1,0-0.2,0-0.3
		c0-0.3-0.2-0.4-0.6-0.4c-0.4,0-0.7,0.1-1.1,0.2l0.1-0.9c0.5-0.1,0.8-0.2,1.2-0.2c0.9,0,1.3,0.4,1.3,1.1c0,0.2,0,0.5-0.1,0.8
		C12.9,20.5,12.7,21.7,12.7,22L12.7,22z M26.1,17.3l-0.2,1c-0.4-0.2-0.6-0.3-0.9-0.3c-0.7,0-1.3,0.7-1.3,1.8c0,0.7,0.4,1.2,0.9,1.2
		c0.2,0,0.5-0.1,0.8-0.2l-0.2,1.1c-0.4,0.1-0.6,0.1-0.9,0.1c-1.1,0-1.7-0.8-1.7-2.1c0-1.7,0.9-2.9,2.2-2.9
		C25.4,17.1,25.9,17.3,26.1,17.3 M27.7,20.3c-0.1,0-0.1,0-0.2,0c-0.6,0-0.9,0.2-0.9,0.6c0,0.2,0.1,0.4,0.4,0.4
		C27.4,21.2,27.7,20.8,27.7,20.3z M28.4,22h-0.8l0-0.4c-0.3,0.3-0.6,0.5-1,0.5c-0.5,0-0.9-0.4-0.9-1.1c0-1,0.6-1.5,1.8-1.5
		c0.1,0,0.3,0,0.4,0c0-0.1,0-0.2,0-0.3c0-0.3-0.2-0.4-0.6-0.4c-0.4,0-0.7,0.1-1.1,0.2l0.1-0.9c0.5-0.1,0.8-0.2,1.2-0.2
		c0.9,0,1.3,0.4,1.3,1.1c0,0.2,0,0.5-0.1,0.8C28.6,20.5,28.4,21.7,28.4,22L28.4,22z M17.1,21.9c-0.2,0.1-0.5,0.1-0.7,0.1
		c-0.5,0-0.8-0.3-0.8-0.9c0-0.2,0.1-0.6,0.1-1l0.4-2.7h1l-0.1,0.6h0.5L17.4,19h-0.5c-0.1,0.7-0.3,1.7-0.3,1.8c0,0.2,0.1,0.3,0.3,0.3
		c0.1,0,0.2,0,0.3,0L17.1,21.9 M20.2,21.9c-0.3,0.1-0.7,0.2-1,0.2c-1.1,0-1.7-0.6-1.7-1.7c0-1.3,0.7-2.3,1.7-2.3
		c0.8,0,1.3,0.6,1.3,1.4c0,0.3,0,0.6-0.1,1h-2c-0.1,0.6,0.3,0.8,0.9,0.8c0.4,0,0.7-0.1,1-0.2C20.3,20.9,20.2,21.9,20.2,21.9z
		 M19.6,19.6c0-0.1,0.1-0.7-0.5-0.7c-0.3,0-0.5,0.3-0.6,0.7H19.6z M13.3,19.3c0,0.5,0.2,0.8,0.8,1.1c0.4,0.2,0.5,0.3,0.5,0.4
		c0,0.2-0.2,0.4-0.6,0.4c-0.3,0-0.6-0.1-0.9-0.2L12.9,22c0.2,0.1,0.4,0.1,1,0.1c1.1,0,1.5-0.4,1.5-1.3c0-0.5-0.2-0.9-0.7-1.1
		c-0.4-0.2-0.5-0.2-0.5-0.4c0-0.2,0.2-0.3,0.5-0.3c0.2,0,0.5,0,0.7,0.1l0.1-0.9c-0.3,0-0.6-0.1-0.9-0.1C13.7,18,13.3,18.6,13.3,19.3
		 M33.7,22h-0.9l0-0.4c-0.3,0.3-0.6,0.4-0.9,0.4c-0.7,0-1.2-0.6-1.2-1.6c0-1.3,0.7-2.4,1.6-2.4c0.4,0,0.7,0.2,1,0.5l0.2-1.4h1
		L33.7,22L33.7,22z M32.2,21.1c0.5,0,0.8-0.5,0.8-1.3c0-0.5-0.2-0.8-0.5-0.8c-0.5,0-0.8,0.5-0.8,1.3C31.7,20.8,31.9,21.1,32.2,21.1
		L32.2,21.1z M29.3,18.1c-0.1,1.2-0.3,2.4-0.5,3.7l0,0.3h1c0.4-2.4,0.4-2.9,1-2.8c0.1-0.5,0.3-0.9,0.4-1.1c-0.4-0.1-0.7,0.2-1,0.6
		c0-0.2,0.1-0.4,0.1-0.6L29.3,18.1 M21.1,18.1c-0.1,1.2-0.3,2.4-0.5,3.7l0,0.3h1c0.4-2.4,0.4-2.9,1-2.8c0.1-0.5,0.3-0.9,0.4-1.1
		c-0.4-0.1-0.7,0.2-1,0.6c0-0.2,0.1-0.4,0.1-0.6L21.1,18.1 M34.1,21.7c0-0.2,0.1-0.3,0.3-0.3s0.3,0.1,0.3,0.3c0,0.2-0.1,0.3-0.3,0.3
		c0,0,0,0,0,0C34.3,22,34.1,21.9,34.1,21.7z M34.4,21.9c0.1,0,0.2-0.1,0.2-0.2c0-0.1-0.1-0.2-0.2-0.2c0,0,0,0,0,0
		c-0.1,0-0.2,0.1-0.2,0.2C34.2,21.8,34.3,21.9,34.4,21.9z M34.4,21.8L34.4,21.8l-0.1-0.3h0.1c0,0,0,0,0.1,0c0,0,0,0,0,0.1
		c0,0,0,0.1,0,0.1l0,0.1L34.4,21.8l0-0.1h0L34.4,21.8L34.4,21.8z M34.4,21.7L34.4,21.7C34.5,21.7,34.5,21.7,34.4,21.7
		C34.5,21.7,34.5,21.6,34.4,21.7C34.5,21.6,34.5,21.6,34.4,21.7C34.5,21.6,34.4,21.6,34.4,21.7L34.4,21.7
		C34.4,21.6,34.4,21.7,34.4,21.7z"/>
</g>
</svg>
