<?xml version="1.0" encoding="utf-8"?>
<!-- Generator: Adobe Illustrator 23.0.6, SVG Export Plug-In . SVG Version: 6.00 Build 0)  -->
<svg version="1.1" id="Layer_1" xmlns="http://www.w3.org/2000/svg" xmlns:xlink="http://www.w3.org/1999/xlink" x="0px" y="0px"
	 width="40px" height="40px" viewBox="0 0 40 40" style="enable-background:new 0 0 40 40;" xml:space="preserve">
<g>
	<g>
		<path style="fill-rule:evenodd;clip-rule:evenodd;fill:#0058A0;" d="M14.3,26.2l1.8-12H19l-1.8,12H14.3 M27.7,14.5
			C26.9,14.2,26,14,25.1,14c-2.9,0-4.9,1.6-4.9,4c0,1.7,1.4,2.7,2.5,3.3c1.1,0.6,1.5,1,1.5,1.5c0,0.8-0.9,1.2-1.7,1.2
			c-1.2,0-1.8-0.2-2.7-0.6L19.4,23L19,25.7c0.7,0.3,1.9,0.6,3.2,0.6c3.1,0,5-1.6,5.1-4.1c0-1.4-0.8-2.4-2.4-3.3
			c-1-0.6-1.6-0.9-1.6-1.5c0-0.5,0.5-1,1.7-1c0.8,0,1.5,0.1,2.2,0.5l0.3,0.1L27.7,14.5 M35.2,14.2h-2.2c-0.7,0-1.2,0.2-1.5,1
			l-4.3,11h3.1c0,0,0.5-1.5,0.6-1.8l3.7,0c0.1,0.4,0.4,1.8,0.4,1.8h2.7C37.5,26.2,35.2,14.2,35.2,14.2z M31.6,21.9
			c0.2-0.7,1.2-3.3,1.2-3.3c0,0,0.2-0.7,0.4-1.1l0.2,1c0,0,0.6,2.9,0.7,3.5L31.6,21.9z M11.8,14.2L9,22.4l-0.3-1.7
			c-0.5-1.9-2.2-4-4-5l2.6,10.5l3.1,0l4.6-11.9L11.8,14.2"/>
	</g>
	<path style="fill-rule:evenodd;clip-rule:evenodd;fill:#FAA61A;" d="M6.3,14.2H1.7l0,0.2c3.6,1,6.1,3.4,7.1,6.3l-1-5.5
		C7.5,14.5,7,14.2,6.3,14.2L6.3,14.2z"/>
</g>
</svg>
