<?xml version="1.0" encoding="utf-8"?>
<!-- Generator: Adobe Illustrator 23.0.6, SVG Export Plug-In . SVG Version: 6.00 Build 0)  -->
<svg version="1.1" id="Layer_1" xmlns="http://www.w3.org/2000/svg" xmlns:xlink="http://www.w3.org/1999/xlink" x="0px" y="0px"
	 width="40px" height="40px" viewBox="0 0 40 40" style="enable-background:new 0 0 40 40;" xml:space="preserve">
<g>
	<path style="fill:#0A7EC2;" d="M32.3,8.2H8.9v23.5h23.4V24c0.1-0.2,0.1-0.3,0.1-0.5c0-0.2,0-0.4-0.1-0.5L32.3,8.2z"/>
	<path style="fill:#FFFFFF;" d="M11,18.4l-0.4-1.1l-0.4,1.1H11z M21,18c-0.1,0-0.2,0.1-0.3,0.1h-0.8v-0.6h0.8c0.1,0,0.2,0,0.3,0
		c0.1,0,0.1,0.1,0.1,0.2C21.1,17.8,21,17.9,21,18 M26.7,18.4l-0.5-1.1l-0.4,1.1H26.7z M16,19.6h-0.7v-2.2l-1,2.2h-0.6l-1-2.2v2.2
		h-1.4L11.3,19H9.9l-0.3,0.6H9l1.2-2.8h1l1.1,2.6v-2.6h1.1l0.9,1.9l0.8-1.9h1.1L16,19.6z M18.7,19.6h-2.2v-2.8h2.2v0.6h-1.5v0.5h1.5
		v0.6h-1.5V19h1.5V19.6z M21.8,17.6c0,0.3-0.2,0.6-0.5,0.7c0.1,0,0.2,0.1,0.3,0.2c0.1,0.2,0.1,0.3,0.1,0.5v0.6h-0.7v-0.3
		c0-0.2,0-0.4-0.1-0.6c-0.1-0.1-0.2-0.1-0.5-0.1h-0.7v1h-0.7v-2.8h1.5c0.3,0,0.5,0,0.8,0.1C21.7,17.1,21.8,17.3,21.8,17.6
		 M22.9,19.6h-0.7v-2.8h0.7V19.6z M30.6,19.6h-0.9l-1.3-2.1v2.1h-1.3L26.9,19h-1.4l-0.2,0.6h-0.8c-0.6,0.1-1.2-0.4-1.3-1
		c0-0.1,0-0.2,0-0.4c0-0.4,0.1-0.8,0.4-1.1c0.3-0.2,0.6-0.4,1-0.3h0.6v0.6h-0.6c-0.2,0-0.4,0-0.5,0.2c-0.1,0.2-0.2,0.4-0.2,0.6
		c0,0.2,0,0.5,0.2,0.7c0.1,0.1,0.3,0.2,0.5,0.1h0.3l0.9-2.2h1l1.1,2.6v-2.6h1l1.2,1.9v-1.9h0.7L30.6,19.6z M8.9,20.1H10l0.3-0.6h0.6
		l0.3,0.6h2.2v-0.5l0.2,0.5h1.1l0.2-0.5v0.5h5.5v-1h0.1c0.1,0,0.1,0,0.1,0.1v0.9h2.8v-0.2c0.3,0.2,0.7,0.2,1.1,0.2h1.2l0.3-0.6h0.6
		l0.2,0.6H29v-0.6l0.3,0.6h1.8v-3.8h-1.8v0.5l-0.3-0.5h-1.9v0.5L27,16.3h-2.5c-0.4,0-0.8,0.1-1.1,0.2v-0.2h-1.7v0.2
		c-0.2-0.2-0.5-0.2-0.7-0.2h-6.4l-0.4,1l-0.4-1h-2v0.5l-0.2-0.5H9.7l-0.8,1.8V20.1z"/>
	<path style="fill:#FFFFFF;" d="M32.3,22.2h-1.2c-0.1,0-0.2,0-0.3,0c-0.1,0-0.1,0.1-0.1,0.2c0,0.1,0.1,0.2,0.1,0.2
		c0.1,0,0.2,0,0.3,0h0.4c0.3,0,0.5,0.1,0.7,0.2c0,0,0,0,0.1,0.1L32.3,22.2z M32.3,24c-0.2,0.3-0.6,0.4-0.9,0.4h-1.3v-0.6h1.3
		c0.1,0,0.2,0,0.3-0.1c0.1,0,0.1-0.1,0.1-0.2c0-0.1,0-0.1-0.1-0.2c-0.1,0-0.1-0.1-0.2-0.1c-0.6,0-1.4,0-1.4-0.9
		c0-0.5,0.4-0.8,0.8-0.8c0,0,0.1,0,0.1,0h1.3V21h-1.2c-0.3,0-0.6,0.1-0.8,0.2V21h-1.8c-0.3,0-0.6,0.1-0.8,0.2V21h-3.2v0.2
		c-0.3-0.2-0.6-0.2-0.9-0.2h-2.1v0.2c-0.3-0.2-0.6-0.2-0.9-0.2h-2.4l-0.6,0.6L17.1,21h-3.5v3.8h3.5l0.6-0.6l0.6,0.6h2.1V24h0.2
		c0.3,0,0.6,0,0.9-0.1v1h1.8v-1h0.1c0.1,0,0.1,0,0.1,0.1v0.9h5.4c0.3,0,0.6-0.1,0.9-0.2v0.2h1.7c0.3,0,0.7,0,1-0.2L32.3,24L32.3,24z
		 M29.7,22.9c0.1,0.2,0.2,0.3,0.2,0.6c0,0.6-0.4,0.9-1,0.9h-1.3v-0.6h1.3c0.1,0,0.2,0,0.3-0.1c0,0,0.1-0.1,0.1-0.2
		c0-0.1,0-0.1-0.1-0.2c-0.1,0-0.2-0.1-0.2-0.1c-0.6,0-1.4,0-1.4-0.9c0-0.4,0.2-0.8,0.9-0.8h1.3v0.6h-1.2c-0.1,0-0.2,0-0.2,0
		c-0.1,0-0.1,0.1-0.1,0.2c0,0.1,0.1,0.2,0.1,0.2c0.1,0,0.2,0,0.3,0H29C29.2,22.6,29.5,22.7,29.7,22.9 M23.8,22.7
		c-0.1,0-0.2,0.1-0.3,0.1h-0.8v-0.6h0.8c0.1,0,0.2,0,0.3,0c0.1,0,0.1,0.1,0.1,0.2C23.9,22.6,23.9,22.7,23.8,22.7 M24.2,23.1
		c0.1,0,0.2,0.1,0.3,0.2c0.1,0.2,0.1,0.3,0.1,0.5v0.6h-0.7V24c0-0.2,0-0.4-0.1-0.6c-0.1-0.1-0.2-0.1-0.5-0.1h-0.7v1H22v-2.8h1.5
		c0.3,0,0.5,0,0.8,0.1c0.2,0.1,0.4,0.4,0.3,0.6C24.6,22.6,24.5,22.9,24.2,23.1 M25,21.6h2.2v0.6h-1.6v0.5h1.5v0.6h-1.5v0.6h1.6v0.6
		H25V21.6z M20.6,22.9h-0.9v-0.7h0.9c0.2,0,0.4,0.1,0.4,0.3S20.8,22.9,20.6,22.9 M19.1,24.1l-1-1.1l1-1.1V24.1z M16.5,23.8h-1.6
		v-0.6h1.4v-0.6h-1.4v-0.5h1.7l0.7,0.8L16.5,23.8z M21.7,22.5c0,0.8-0.6,0.9-1.1,0.9h-0.8v0.9h-1.3l-0.8-0.9l-0.8,0.9h-2.6v-2.8h2.6
		l0.8,0.9l0.8-0.9h2.1C21.1,21.6,21.7,21.7,21.7,22.5"/>
	<path style="fill:#0A7EC2;" d="M8.6,31.2c0,0.3-0.2,0.5-0.5,0.5c-0.3,0-0.5-0.2-0.5-0.5c0-0.3,0.2-0.5,0.5-0.5l0,0
		C8.4,30.7,8.6,30.9,8.6,31.2C8.6,31.2,8.6,31.2,8.6,31.2 M8.6,31.2c0-0.3-0.2-0.6-0.6-0.6c-0.3,0-0.6,0.2-0.6,0.6
		c0,0.3,0.2,0.6,0.6,0.6C8.4,31.8,8.6,31.5,8.6,31.2 M8.2,31.1C8.2,31,8.2,31,8.2,31.1L8,31v0.1L8.2,31.1
		C8.2,31.2,8.2,31.2,8.2,31.1 M8.3,31.4L8.3,31.4c-0.1,0-0.1-0.1-0.1-0.1c0,0,0-0.1-0.1-0.1H8v0.2H7.9V31h0.2c0.1,0,0.2,0,0.2,0.1
		c0,0,0,0.1-0.1,0.1c0,0,0,0.1,0,0.1L8.3,31.4C8.3,31.4,8.3,31.4,8.3,31.4L8.3,31.4z"/>
</g>
</svg>
