<?xml version="1.0" encoding="utf-8"?>
<!-- Generator: Adobe Illustrator 23.0.6, SVG Export Plug-In . SVG Version: 6.00 Build 0)  -->
<svg version="1.1" id="Layer_1" xmlns="http://www.w3.org/2000/svg" xmlns:xlink="http://www.w3.org/1999/xlink" x="0px" y="0px"
	 width="40px" height="40px" viewBox="0 0 40 40" style="enable-background:new 0 0 40 40;" xml:space="preserve">
<g>
	<path style="fill:#FFFFFF;" d="M35.8,29.4c0,0.6-0.5,1-1,1H5.2c-0.6,0-1-0.5-1-1V11.5c0-0.6,0.5-1,1-1h29.6c0.6,0,1,0.5,1,1V29.4z"
		/>
</g>
<g>
	<defs>
		<path id="SVGID_1_" d="M34.7,30.4H5.3c-0.6,0-1.1-0.5-1.1-1.1V11.6c0-0.6,0.5-1.1,1.1-1.1h29.4c0.6,0,1.1,0.5,1.1,1.1v17.8
			C35.8,30,35.3,30.4,34.7,30.4z"/>
	</defs>
	<clipPath id="SVGID_2_">
		<use xlink:href="#SVGID_1_"  style="overflow:visible;"/>
	</clipPath>
	<path style="clip-path:url(#SVGID_2_);fill:#F48120;" d="M35.8,21.5c0,0-8.7,6.1-24.7,8.9h24.7V21.5z"/>
</g>
<linearGradient id="SVGID_3_" gradientUnits="userSpaceOnUse" x1="22.0301" y1="4974.1558" x2="20.3194" y2="4971.4771" gradientTransform="matrix(1 0 0 1 0 -4953.3198)">
	<stop  offset="0" style="stop-color:#F89F20"/>
	<stop  offset="0.2502" style="stop-color:#F79A20"/>
	<stop  offset="0.5331" style="stop-color:#F68D20"/>
	<stop  offset="0.6196" style="stop-color:#F58720"/>
	<stop  offset="0.7232" style="stop-color:#F48120"/>
	<stop  offset="1" style="stop-color:#F37521"/>
</linearGradient>
<circle style="fill:url(#SVGID_3_);" cx="20.8" cy="18.9" r="2.5"/>
<path style="fill:#231F20;" d="M34,17.9c0-0.9-0.6-1.4-1.6-1.4H31v4.6h0.9v-1.9H32l1.3,1.9h1.1l-1.5-2C33.6,19.1,34,18.6,34,17.9z
	 M32.2,18.7h-0.3v-1.4h0.3c0.6,0,0.9,0.2,0.9,0.7C33.1,18.4,32.7,18.7,32.2,18.7z"/>
<polygon style="fill:#231F20;" points="27.8,21.2 30.4,21.2 30.4,20.4 28.7,20.4 28.7,19.1 30.3,19.1 30.3,18.3 28.7,18.3 
	28.7,17.3 30.4,17.3 30.4,16.5 27.8,16.5 "/>
<polygon style="fill:#231F20;" points="25.2,19.6 23.9,16.5 23,16.5 24.9,21.3 25.4,21.3 27.4,16.5 26.4,16.5 "/>
<path style="fill:#231F20;" d="M14.4,18.8c0,1.4,1.1,2.4,2.5,2.4c0.4,0,0.7-0.1,1.1-0.3v-1.1c-0.4,0.4-0.7,0.5-1.1,0.5
	c-0.9,0-1.6-0.7-1.6-1.6c0-0.9,0.7-1.6,1.5-1.6c0.4,0,0.8,0.2,1.1,0.5v-1.1c-0.4-0.2-0.7-0.3-1.1-0.3C15.5,16.4,14.4,17.5,14.4,18.8
	z"/>
<path style="fill:#231F20;" d="M12.8,18.3c-0.5-0.2-0.7-0.3-0.7-0.6c0-0.3,0.3-0.5,0.7-0.5c0.3,0,0.5,0.1,0.7,0.4L14,17
	c-0.4-0.3-0.9-0.5-1.4-0.5c-0.8,0-1.4,0.6-1.4,1.3c0,0.6,0.3,1,1.1,1.3c0.4,0.1,0.5,0.2,0.6,0.3c0.2,0.1,0.3,0.3,0.3,0.5
	c0,0.4-0.3,0.7-0.7,0.7c-0.4,0-0.8-0.2-1-0.6l-0.6,0.6c0.4,0.6,0.9,0.9,1.6,0.9c0.9,0,1.6-0.6,1.6-1.5C14.1,19,13.8,18.7,12.8,18.3z
	"/>
<g id="Registered_1_">
	<path style="fill:#231F20;" d="M34.6,16.7c0-0.1-0.1-0.1-0.2-0.1h-0.1V17h0.1v-0.2l0.1,0.2h0.1l-0.1-0.2
		C34.5,16.8,34.6,16.7,34.6,16.7z M34.4,16.7L34.4,16.7l0-0.1h0C34.4,16.6,34.5,16.7,34.4,16.7C34.5,16.7,34.4,16.7,34.4,16.7z"/>
	<path style="fill:#231F20;" d="M34.4,16.4c-0.2,0-0.4,0.2-0.4,0.4c0,0.2,0.2,0.4,0.4,0.4c0.2,0,0.4-0.2,0.4-0.4
		C34.8,16.6,34.6,16.4,34.4,16.4z M34.4,17.1c-0.2,0-0.3-0.1-0.3-0.3c0-0.2,0.1-0.3,0.3-0.3c0.2,0,0.3,0.1,0.3,0.3
		C34.7,16.9,34.6,17.1,34.4,17.1z"/>
</g>
<path style="fill:#231F20;" d="M6.8,16.5H5.4v4.6h1.3c0.7,0,1.2-0.2,1.7-0.5c0.5-0.4,0.8-1.1,0.8-1.8C9.3,17.5,8.2,16.5,6.8,16.5z
	 M7.8,20c-0.3,0.3-0.7,0.4-1.2,0.4H6.3v-3.1h0.2c0.6,0,0.9,0.1,1.2,0.4c0.3,0.3,0.5,0.7,0.5,1.2C8.3,19.3,8.1,19.7,7.8,20z"/>
<rect x="9.7" y="16.5" style="fill:#231F20;" width="0.9" height="4.6"/>
</svg>
