<?xml version="1.0" encoding="utf-8"?>
<!-- Generator: Adobe Illustrator 23.0.6, SVG Export Plug-In . SVG Version: 6.00 Build 0)  -->
<svg version="1.1" id="Layer_1" xmlns="http://www.w3.org/2000/svg" xmlns:xlink="http://www.w3.org/1999/xlink" x="0px" y="0px"
	 width="40px" height="40px" viewBox="0 0 40 40" style="enable-background:new 0 0 40 40;" xml:space="preserve">
<g id="Mark">
	<path style="fill:#FFFFFF;" d="M34.8,26.8c0,2.5-2.1,4.6-4.6,4.6h-25V13.2c0-2.5,2.1-4.6,4.6-4.6h25V26.8z"/>
	<g>
		
			<linearGradient id="SVGID_1_" gradientUnits="userSpaceOnUse" x1="-55.5371" y1="295.2538" x2="-48.3039" y2="295.2538" gradientTransform="matrix(1.125 0 0 -1.125 87.5245 353.4285)">
			<stop  offset="0" style="stop-color:#007F49"/>
			<stop  offset="0.2883" style="stop-color:#209248"/>
			<stop  offset="0.7632" style="stop-color:#50AF47"/>
			<stop  offset="1" style="stop-color:#62BA46"/>
		</linearGradient>
		<path style="fill:url(#SVGID_1_);" d="M26.7,22.1h1.9c0.1,0,0.2,0,0.2,0c0.4-0.1,0.7-0.4,0.7-0.8c0-0.4-0.3-0.8-0.7-0.8
			c-0.1,0-0.2,0-0.2,0h-1.9V22.1z"/>
		
			<linearGradient id="SVGID_2_" gradientUnits="userSpaceOnUse" x1="-55.5373" y1="296.3811" x2="-48.304" y2="296.3811" gradientTransform="matrix(1.125 0 0 -1.125 87.5245 353.4285)">
			<stop  offset="0" style="stop-color:#007F49"/>
			<stop  offset="0.2883" style="stop-color:#209248"/>
			<stop  offset="0.7632" style="stop-color:#50AF47"/>
			<stop  offset="1" style="stop-color:#62BA46"/>
		</linearGradient>
		<path style="fill:url(#SVGID_2_);" d="M28.3,10.1c-1.8,0-3.3,1.5-3.3,3.3v3.4h4.7c0.1,0,0.2,0,0.3,0c1.1,0.1,1.8,0.6,1.8,1.5
			c0,0.7-0.5,1.4-1.5,1.5v0c1.1,0.1,1.9,0.7,1.9,1.6c0,1-0.9,1.6-2.1,1.6H25v6.7h4.8c1.8,0,3.3-1.5,3.3-3.3V10.1H28.3z"/>
		
			<linearGradient id="SVGID_3_" gradientUnits="userSpaceOnUse" x1="-55.5372" y1="297.6077" x2="-48.3044" y2="297.6077" gradientTransform="matrix(1.125 0 0 -1.125 87.5245 353.4285)">
			<stop  offset="0" style="stop-color:#007F49"/>
			<stop  offset="0.2883" style="stop-color:#209248"/>
			<stop  offset="0.7632" style="stop-color:#50AF47"/>
			<stop  offset="1" style="stop-color:#62BA46"/>
		</linearGradient>
		<path style="fill:url(#SVGID_3_);" d="M29.2,18.6c0-0.4-0.3-0.7-0.7-0.8c0,0-0.1,0-0.2,0h-1.7v1.6h1.7c0.1,0,0.2,0,0.2,0
			C28.9,19.3,29.2,19.1,29.2,18.6z"/>
	</g>
	
		<linearGradient id="SVGID_4_" gradientUnits="userSpaceOnUse" x1="-71.7302" y1="296.381" x2="-64.3852" y2="296.381" gradientTransform="matrix(1.125 0 0 -1.125 87.5245 353.4285)">
		<stop  offset="0" style="stop-color:#333377"/>
		<stop  offset="7.140000e-02" style="stop-color:#2F397D"/>
		<stop  offset="0.6913" style="stop-color:#0D66AD"/>
		<stop  offset="1" style="stop-color:#0077BF"/>
	</linearGradient>
	<path style="fill:url(#SVGID_4_);" d="M10.1,10.1c-1.8,0-3.3,1.5-3.3,3.3v8.1c0.9,0.4,1.9,0.7,2.8,0.7c1.1,0,1.8-0.7,1.8-1.6v-3.8
		h2.8v3.8c0,1.5-0.9,2.7-4.1,2.7c-1.9,0-3.4-0.4-3.4-0.4v6.9h4.8c1.8,0,3.3-1.5,3.3-3.3V10.1H10.1z"/>
	
		<linearGradient id="SVGID_5_" gradientUnits="userSpaceOnUse" x1="-63.6723" y1="296.3811" x2="-56.5387" y2="296.3811" gradientTransform="matrix(1.125 0 0 -1.125 87.5245 353.4285)">
		<stop  offset="0" style="stop-color:#743237"/>
		<stop  offset="0.4006" style="stop-color:#AA263E"/>
		<stop  offset="0.8011" style="stop-color:#DA1C44"/>
		<stop  offset="1" style="stop-color:#EC1846"/>
	</linearGradient>
	<path style="fill:url(#SVGID_5_);" d="M19.2,10.1c-1.8,0-3.3,1.5-3.3,3.3v4.3c0.8-0.7,2.3-1.2,4.6-1.1c1.3,0.1,2.6,0.4,2.6,0.4v1.4
		c-0.7-0.3-1.5-0.6-2.5-0.7c-1.8-0.1-2.8,0.7-2.8,2.3c0,1.5,1.1,2.4,2.8,2.3c1-0.1,1.8-0.4,2.5-0.7v1.4c0,0-1.3,0.3-2.6,0.4
		c-2.3,0.1-3.8-0.3-4.6-1.1v7.6h4.8c1.8,0,3.3-1.5,3.3-3.3V10.1H19.2z"/>
</g>
</svg>
