<?xml version="1.0" encoding="utf-8"?>
<!-- Generator: Adobe Illustrator 23.0.6, SVG Export Plug-In . SVG Version: 6.00 Build 0)  -->
<svg version="1.1" id="Layer_1" xmlns="http://www.w3.org/2000/svg" xmlns:xlink="http://www.w3.org/1999/xlink" x="0px" y="0px"
	 width="40px" height="40px" viewBox="0 0 40 40" style="enable-background:new 0 0 40 40;" xml:space="preserve">
<g>
	<path style="fill-rule:evenodd;clip-rule:evenodd;fill:#CD4045;" d="M26.5,10.1l-3.1,0L26.5,10.1C26.5,10.1,26.5,10.1,26.5,10.1"/>
	<path style="fill-rule:evenodd;clip-rule:evenodd;fill:#D8232A;" d="M11.3,28.4L15.1,12c0.2-1.1,1.6-1.9,2.7-2l-7.2,0
		c-1.1,0-2.5,0.9-2.7,2L4.1,28.4c0,0.1,0,0.2,0,0.3V29c0.1,0.8,0.7,1.4,1.5,1.4h7.3C11.8,30.4,11.1,29.5,11.3,28.4"/>
	<path style="fill-rule:evenodd;clip-rule:evenodd;fill:#2D4C6C;" d="M23.4,10.1l-5.6,0c0,0,0,0,0,0L23.4,10.1"/>
	<path style="fill-rule:evenodd;clip-rule:evenodd;fill:#0067A5;" d="M20.1,28.4L23.8,12c0.2-1.1,1.6-1.9,2.7-2l-3.1,0l-5.6,0
		c-1.1,0-2.4,0.9-2.7,2l-3.7,16.4c-0.2,1.1,0.4,2,1.5,2h8.8C20.5,30.4,19.9,29.5,20.1,28.4"/>
	<path style="fill-rule:evenodd;clip-rule:evenodd;fill:#009294;" d="M34.4,10.1l-7.9,0h0l0,0c-1.1,0-2.4,0.9-2.7,2l-3.7,16.4
		c-0.2,1.1,0.4,2,1.5,2h8.3c1.1-0.1,2.1-0.9,2.3-2L35.9,12C36.2,10.9,35.5,10.1,34.4,10.1"/>
	<path style="fill-rule:evenodd;clip-rule:evenodd;fill:#FFFFFE;" d="M17.9,22H18c0.1,0,0.2,0,0.3-0.1l0.4-0.5h1l-0.2,0.3h1.1
		l-0.1,0.5H19c-0.2,0.2-0.3,0.3-0.6,0.3h-0.7L17.9,22L17.9,22z M17.7,22.8h2.5l-0.2,0.6h-1l-0.2,0.6h1l-0.2,0.6h-1l-0.2,0.8
		c-0.1,0.1,0,0.2,0.2,0.2h0.8L19.4,26h-1.5c-0.3,0-0.4-0.2-0.3-0.5l0.3-1.1h-0.6l0.2-0.6H18l0.2-0.6h-0.6L17.7,22.8L17.7,22.8z
		 M21.7,21.3l0,0.3c0,0,0.5-0.4,0.9-0.4h1.6l-0.6,2.2c0,0.3-0.3,0.4-0.6,0.4h-1.8l-0.4,1.5c0,0.1,0,0.1,0.1,0.1h0.4L21,26h-0.9
		c-0.3,0-0.5-0.1-0.4-0.3l1.2-4.4C20.9,21.3,21.7,21.3,21.7,21.3z M23.1,22h-1.4l-0.2,0.6c0,0,0.2-0.2,0.6-0.2c0.4,0,0.8,0,0.8,0
		S23.1,22,23.1,22z M22.6,23.3c0.1,0,0.2,0,0.2-0.1l0.1-0.3h-1.4l-0.1,0.4C21.3,23.3,22.6,23.3,22.6,23.3z M21.6,24h0.8l0,0.4h0.2
		c0.1,0,0.2,0,0.2-0.1l0.1-0.2h0.7l-0.1,0.3c-0.1,0.3-0.3,0.4-0.6,0.4h-0.4l0,0.6c0,0.1,0.1,0.1,0.3,0.1h0.4L22.9,26h-1
		c-0.3,0-0.4-0.1-0.4-0.4C21.5,25.7,21.6,24,21.6,24z M25.1,22l0.2-0.7h1l0,0.2c0,0,0.5-0.2,0.8-0.2h1.2L28,22h-0.2l-0.9,3.1h0.2
		l-0.2,0.6h-0.2L26.7,26h-0.9l0.1-0.3H24l0.2-0.6h0.2l0.9-3.1C25.2,22,25.1,22,25.1,22z M26.1,22l-0.2,0.8c0,0,0.4-0.2,0.8-0.2
		c0.1-0.3,0.2-0.6,0.2-0.6H26.1z M25.7,23.3l-0.2,0.9c0,0,0.5-0.2,0.8-0.2c0.1-0.3,0.2-0.6,0.2-0.6H25.7z M25.9,25.2l0.2-0.6h-0.7
		l-0.2,0.6H25.9z M28.2,21.3h0.9l0,0.3c0,0.1,0,0.1,0.1,0.1h0.2l-0.2,0.6h-0.7c-0.3,0-0.4-0.1-0.4-0.3L28.2,21.3z M28,22.5h2.9
		l-0.2,0.6h-0.9l-0.2,0.6h0.9l-0.2,0.6h-1l-0.2,0.4h0.5l0.1,0.7c0,0.1,0.1,0.1,0.2,0.1h0.2L29.9,26h-0.6c-0.3,0-0.4-0.1-0.4-0.3
		l-0.1-0.6l-0.5,0.7C28.2,26,28,26.1,27.8,26H27l0.2-0.6h0.3c0.1,0,0.2,0,0.3-0.1l0.7-1h-0.9l0.2-0.6h1l0.2-0.6h-1L28,22.5L28,22.5z
		 M11.7,18.4c-0.1,0.5-0.4,1-0.8,1.3c-0.4,0.3-0.9,0.4-1.5,0.4c-0.6,0-1-0.1-1.3-0.4c-0.2-0.2-0.3-0.5-0.3-0.8c0-0.1,0-0.3,0-0.4
		l0.7-3.2h1l-0.7,3.1c0,0.1,0,0.2,0,0.2c0,0.2,0,0.3,0.1,0.4c0.1,0.2,0.3,0.2,0.6,0.2c0.3,0,0.6-0.1,0.8-0.2
		c0.2-0.2,0.3-0.4,0.4-0.6l0.7-3.1h1L11.7,18.4 M12.7,17.2h0.7l-0.1,0.4l0.1-0.1c0.2-0.2,0.5-0.4,0.8-0.4c0.3,0,0.5,0.1,0.6,0.3
		c0.1,0.2,0.2,0.4,0.1,0.7L14.6,20h-0.7l0.4-1.8c0-0.2,0-0.3,0-0.4c-0.1-0.1-0.2-0.1-0.3-0.1c-0.2,0-0.3,0.1-0.5,0.2
		c-0.1,0.1-0.2,0.3-0.3,0.5L12.8,20h-0.7L12.7,17.2 M20.8,17.2h0.7l-0.1,0.4l0.1-0.1c0.2-0.2,0.5-0.4,0.8-0.4c0.3,0,0.5,0.1,0.6,0.3
		c0.1,0.2,0.2,0.4,0.1,0.7L22.7,20H22l0.4-1.8c0-0.2,0-0.3,0-0.4c-0.1-0.1-0.2-0.1-0.3-0.1c-0.2,0-0.3,0.1-0.5,0.2
		c-0.1,0.1-0.2,0.3-0.3,0.5L20.9,20h-0.7L20.8,17.2 M15.9,17.2h0.8L16.1,20h-0.8L15.9,17.2 M16.2,16.2H17l-0.1,0.7H16L16.2,16.2
		 M17.4,19.8c-0.2-0.2-0.3-0.5-0.3-0.8c0-0.1,0-0.3,0-0.4c0.1-0.5,0.3-0.8,0.6-1.1c0.3-0.3,0.7-0.4,1.1-0.4c0.4,0,0.6,0.1,0.8,0.3
		c0.2,0.2,0.3,0.5,0.3,0.8c0,0.1,0,0.1,0,0.2c0,0.1,0,0.1,0,0.2c-0.1,0.5-0.3,0.8-0.6,1.1c-0.3,0.3-0.7,0.4-1.1,0.4
		C17.9,20.1,17.6,20,17.4,19.8 M18.9,19.3c0.1-0.1,0.2-0.4,0.3-0.7c0-0.1,0-0.2,0-0.3c0-0.2,0-0.3-0.1-0.4s-0.2-0.1-0.4-0.1
		c-0.2,0-0.4,0.1-0.5,0.2c-0.1,0.2-0.2,0.4-0.3,0.7c0,0,0,0.1,0,0.1c0,0,0,0.1,0,0.1c0,0.2,0,0.3,0.1,0.4c0.1,0.1,0.2,0.1,0.4,0.1
		C18.6,19.5,18.8,19.4,18.9,19.3 M24.2,15.4h2.1c0.4,0,0.7,0.1,0.9,0.3c0.2,0.2,0.3,0.4,0.3,0.8v0c0,0.1,0,0.1,0,0.2
		c0,0.1,0,0.2,0,0.2c-0.1,0.4-0.3,0.8-0.6,1.1c-0.3,0.3-0.7,0.4-1.2,0.4h-1.1L24.3,20h-1L24.2,15.4 M24.8,17.6h0.9
		c0.2,0,0.4-0.1,0.6-0.2c0.1-0.1,0.2-0.3,0.3-0.5c0,0,0-0.1,0-0.1c0,0,0-0.1,0-0.1c0-0.2-0.1-0.3-0.2-0.4c-0.1-0.1-0.3-0.1-0.6-0.1
		H25L24.8,17.6 M31.8,20.6c-0.3,0.6-0.6,1-0.8,1.2c-0.2,0.2-0.5,0.6-1.3,0.5l0.1-0.5c0.7-0.2,1-1.1,1.3-1.6l-0.2-3.1l0.5,0h0.4
		l0,1.9l0.8-1.9h0.8L31.8,20.6 M29.5,17.4l-0.3,0.2c-0.3-0.3-0.7-0.4-1.3-0.2c-0.8,0.4-1.5,3.3,0.8,2.4l0.1,0.2l0.9,0l0.6-2.7
		L29.5,17.4 M28.9,18.9c-0.1,0.4-0.5,0.7-0.7,0.6C28,19.4,27.9,19,28,18.6c0.1-0.4,0.5-0.7,0.7-0.6C29,18,29.1,18.5,28.9,18.9"/>
</g>
</svg>
